<svg width="22" height="24" viewBox="0 0 21.9519 23.9263" fill="none" xmlns="http://www.w3.org/2000/svg">
<g id="Group 2521">
<path id="Rectangle 705" d="M7.66096 14.1477V21.3753C7.66071 22.5286 6.72541 23.463 5.5721 23.4632C4.41865 23.4632 3.48349 22.5287 3.48323 21.3753V14.1477H7.66096Z" fill="var(--fill-0, white)" stroke="var(--stroke-0, white)" stroke-width="0.925336"/>
<path id="Rectangle 704" d="M2.86036 5.64321H9.51173V14.15H2.86036C1.53622 14.1498 0.463068 13.0767 0.462898 11.7526V8.04067C0.463107 6.71656 1.53625 5.64342 2.86036 5.64321Z" fill="var(--fill-0, white)" stroke="var(--stroke-0, white)" stroke-width="0.925336"/>
<path id="Vector 45" d="M20.1608 0.63582L10.1096 5.44747C9.78745 5.60169 9.58243 5.92715 9.58243 6.28433V13.5654C9.58243 13.9077 9.77087 14.2222 10.0727 14.3836L20.1239 19.7588C20.742 20.0893 21.4893 19.6415 21.4893 18.9406V1.47268C21.4893 0.789909 20.7767 0.341009 20.1608 0.63582Z" fill="var(--fill-0, white)" stroke="var(--stroke-0, white)" stroke-width="0.925336"/>
</g>
</svg>
