<svg width="26" height="23" viewBox="0 0 25.7323 23.0847" fill="none" xmlns="http://www.w3.org/2000/svg">
<g id="Group 115">
<path id="Rectangle 721" d="M18.3359 3.10656C18.3359 2.41696 18.895 1.85794 19.5845 1.85794V1.85794C20.2741 1.85794 20.8332 2.41697 20.8332 3.10656V6.8524H19.8123C18.9969 6.8524 18.3359 6.19141 18.3359 5.37603V3.10656Z" fill="var(--fill-0, white)"/>
<path id="Vector 68" d="M11.8594 3.66835L3.50142 11.5184C3.20431 11.7974 3.03579 12.1869 3.03579 12.5945V21.6083C3.03579 22.4237 3.69678 23.0847 4.51216 23.0847H8.39966C9.21504 23.0847 9.87603 22.4237 9.87603 21.6083V16.4722C9.87603 15.6568 10.537 14.9958 11.3524 14.9958H14.3812C15.1927 14.9958 15.8521 15.6508 15.8575 16.4623L15.8921 21.6182C15.8976 22.4297 16.5569 23.0847 17.3684 23.0847H21.3744C22.1898 23.0847 22.8508 22.4237 22.8508 21.6083V12.6017C22.8508 12.1899 22.6788 11.7968 22.3763 11.5173L13.872 3.6601C13.3029 3.13431 12.4242 3.13791 11.8594 3.66835Z" fill="var(--fill-0, white)"/>
<path id="Vector 69" d="M0.868605 11.2499L11.4667 1.4191C12.2565 0.686417 13.4772 0.68493 14.2688 1.41568L24.8637 11.1956" stroke="var(--stroke-0, white)" stroke-width="1.7372" stroke-linecap="round"/>
</g>
</svg>
