<svg width="102" height="110" viewBox="0 0 10.1717 11" fill="none" xmlns="http://www.w3.org/2000/svg">
<g id="Vector">
<path d="M3.42928 8.39447C3.70636 8.39703 3.98344 8.39782 4.26053 8.39685L5.91393 8.39682C6.1901 8.39543 6.46627 8.39567 6.74243 8.3975L6.74266 9.3465C6.74274 9.61264 6.74926 9.90706 6.74147 10.1709L5.91294 10.1712L4.26093 10.171L3.43098 10.171L3.42736 9.67603C3.44062 9.27271 3.42925 8.80254 3.42928 8.39447Z" fill="#151619"/>
<path d="M3.42928 8.39447C3.70636 8.39703 3.98344 8.39782 4.26053 8.39685C4.26041 8.69803 4.2529 9.04438 4.26174 9.34215C4.25463 9.5725 4.24974 9.93999 4.26093 10.171L3.43098 10.171L3.42736 9.67603C3.44062 9.27271 3.42925 8.80254 3.42928 8.39447Z" fill="#F8F6F6"/>
<path d="M5.91393 8.39682C6.1901 8.39543 6.46627 8.39567 6.74243 8.3975L6.74266 9.3465C6.74274 9.61264 6.74926 9.90706 6.74147 10.1709L5.91294 10.1712C5.91448 9.90843 5.92459 9.60024 5.91405 9.3424C5.9097 9.0313 5.91392 8.70879 5.91393 8.39682Z" fill="#F8F6F6"/>
<path d="M4.26174 9.34215L5.91405 9.3424C5.92459 9.60024 5.91448 9.90843 5.91294 10.1712L4.26093 10.171C4.24974 9.93999 4.25463 9.5725 4.26174 9.34215Z" fill="#C1C7C7"/>
<path d="M0.828541 6.74541C1.13806 6.73455 1.46527 6.75311 1.77347 6.72898L1.77615 6.7429C1.77296 7.01898 1.77254 7.29509 1.77488 7.57119C1.7754 7.8434 1.77201 8.12508 1.77673 8.39643C2.2689 8.41442 2.93041 8.40303 3.42928 8.39447C3.42925 8.80254 3.44062 9.27271 3.42736 9.67603L3.43098 10.171C2.89047 10.1611 2.3206 10.1707 1.77772 10.171C1.77089 9.90265 1.77571 9.61356 1.77514 9.34358C1.46422 9.33905 1.14347 9.34295 0.831763 9.34322C0.817336 8.77609 0.82925 8.14066 0.829073 7.57119L0.828541 6.74541Z" fill="#A54E38"/>
<path d="M1.77673 8.39643C2.2689 8.41442 2.93041 8.40303 3.42928 8.39447C3.42925 8.80254 3.44062 9.27271 3.42736 9.67603C3.41061 9.57417 3.41716 9.45136 3.41913 9.34656C3.0198 9.33253 2.61182 9.34824 2.21161 9.34205C2.06756 9.33981 1.91649 9.34177 1.7731 9.3505C1.78021 9.03943 1.77606 8.70898 1.77673 8.39643Z" fill="#C06235"/>
<path d="M0.828541 6.74541C1.13806 6.73455 1.46527 6.75311 1.77347 6.72898L1.77615 6.7429C1.77296 7.01898 1.77254 7.29509 1.77488 7.57119C1.47081 7.56415 1.13538 7.57072 0.829073 7.57119L0.828541 6.74541Z" fill="#D7742F"/>
<path d="M4.26093 10.171L5.91294 10.1712L6.74147 10.1709C6.73644 10.4418 6.74142 10.7279 6.74172 11C5.65368 10.983 4.52427 10.9982 3.43329 10.9988C3.43075 10.7229 3.42998 10.447 3.43098 10.171L4.26093 10.171Z" fill="#A54E38"/>
<path d="M8.39858 7.5703C8.70563 7.56992 9.0369 7.57519 9.34224 7.56837L9.34335 9.34434L8.39525 9.3408C8.40759 9.06422 8.39772 8.68285 8.39803 8.3992L8.39858 7.5703Z" fill="#A54E38"/>
<path d="M6.74266 9.3465C7.29208 9.33621 7.84513 9.34697 8.39525 9.3408L8.39731 10.1722C7.86669 10.17 7.27045 10.1581 6.74147 10.1709C6.74926 9.90706 6.74274 9.61264 6.74266 9.3465Z" fill="#A54E38"/>
<path d="M9.34851 6.74136L10.1717 6.74154L10.1711 7.57048L9.34224 7.56837C9.35204 7.29925 9.339 7.01737 9.34851 6.74136Z" fill="#A54E38"/>
<path d="M0.000206833 6.74042L0.821017 6.74241L0.828541 6.74541L0.829073 7.57119C0.568926 7.5609 0.267109 7.56869 0.00393208 7.56933C-0.00211372 7.29809 0.00130069 7.01282 0.000206833 6.74042Z" fill="#A54E38"/>
<path d="M7.57021 3.42925L8.39742 3.4302L8.39847 4.25839C8.71297 4.25989 9.02746 4.25821 9.34191 4.25335C9.34209 4.52044 9.3354 4.82181 9.34505 5.08613C9.34376 5.33977 9.3522 5.66459 9.34072 5.91201C9.34151 6.1649 9.33303 6.48506 9.34475 6.73221L9.34851 6.74136C9.339 7.01737 9.35204 7.29925 9.34224 7.56837C9.0369 7.57519 8.70563 7.56992 8.39858 7.5703L8.39803 8.3992C8.39772 8.68285 8.40759 9.06422 8.39525 9.3408C7.84513 9.34697 7.29208 9.33621 6.74266 9.3465L6.74243 8.3975C6.46627 8.39567 6.1901 8.39543 5.91393 8.39682L4.26053 8.39685C3.98344 8.39782 3.70636 8.39703 3.42928 8.39447C2.93041 8.40303 2.2689 8.41442 1.77673 8.39643C1.77201 8.12508 1.7754 7.8434 1.77488 7.57119C1.77254 7.29509 1.77296 7.01898 1.77615 6.7429L1.77347 6.72898L1.77347 5.91795L1.77362 5.08459C1.77037 4.81296 1.77551 4.53014 1.77652 4.25759L3.43194 4.25849C3.43069 4.06335 3.41759 3.60061 3.43966 3.42937L4.25936 3.43022L5.91395 3.43076C6.18488 3.43051 6.47554 3.4246 6.74469 3.43017C7.0144 3.43514 7.29934 3.42986 7.57021 3.42925Z" fill="#D7742F"/>
<path d="M4.25936 3.43022L5.91395 3.43076L5.91384 5.08712L5.08427 5.08622L5.08606 5.91426L4.25852 5.91415L4.25936 3.43022Z" fill="#E68C37"/>
<path d="M8.39819 5.9193C8.70572 5.90927 9.03095 5.91547 9.34072 5.91201C9.34151 6.1649 9.33303 6.48506 9.34475 6.73221L9.34851 6.74136C9.339 7.01737 9.35204 7.29925 9.34224 7.56837C9.0369 7.57519 8.70563 7.56992 8.39858 7.5703L7.56986 7.56891L7.56789 6.75359L7.57089 6.74516C7.80959 6.73192 8.14932 6.74195 8.39753 6.73984C8.40153 6.46941 8.39809 6.19043 8.39819 5.9193Z" fill="#D7742F"/>
<path d="M8.39819 5.9193C8.70572 5.90927 9.03095 5.91547 9.34072 5.91201C9.34151 6.1649 9.33303 6.48506 9.34475 6.73221C9.25514 6.75137 8.52946 6.74071 8.39753 6.73984C8.40153 6.46941 8.39809 6.19043 8.39819 5.9193Z" fill="#C06235"/>
<path d="M7.57089 6.74516C7.80959 6.73192 8.14932 6.74195 8.39753 6.73984L8.39858 7.5703L7.56986 7.56891L7.56789 6.75359L7.57089 6.74516Z" fill="#C1C7C7"/>
<path d="M8.39803 8.3992C8.39772 8.68285 8.40759 9.06422 8.39525 9.3408C7.84513 9.34697 7.29208 9.33621 6.74266 9.3465L6.74243 8.3975L8.39803 8.3992Z" fill="#C06235"/>
<path d="M1.77362 5.08459L2.60435 5.08506C2.60111 5.30027 2.59085 5.70475 2.60565 5.9135L2.60419 6.74487C2.35838 6.75557 2.03253 6.74222 1.77615 6.7429L1.77347 6.72898L1.77347 5.91795L1.77362 5.08459Z" fill="#F8F6F6"/>
<path d="M7.5664 5.0854C7.8396 5.08538 8.12538 5.08112 8.39757 5.08747L8.39819 5.9193C8.39809 6.19043 8.40153 6.46941 8.39753 6.73984C8.14932 6.74195 7.80959 6.73192 7.57089 6.74516C7.56449 6.47372 7.56906 6.18651 7.56902 5.91389C7.57107 5.63772 7.5702 5.36155 7.5664 5.0854Z" fill="#F8F6F6"/>
<path d="M7.57021 3.42925L8.39742 3.4302L8.39847 4.25839C7.8572 4.24782 7.28661 4.2576 6.74309 4.25821C6.74031 3.9822 6.74083 3.70616 6.74469 3.43017C7.0144 3.43514 7.29934 3.42986 7.57021 3.42925Z" fill="#C06235"/>
<path d="M6.7425 5.91395L7.56902 5.91389C7.56906 6.18651 7.56449 6.47372 7.57089 6.74516L7.56789 6.75359L7.56986 7.56891C7.29904 7.56538 7.02034 7.56884 6.74886 7.56884C6.73489 7.47965 6.7416 7.12086 6.74188 7.01409L6.7425 5.91395Z" fill="#282B33"/>
<path d="M6.7564 6.74315C6.89271 6.74161 7.47494 6.72902 7.56789 6.75359L7.56986 7.56891C7.29904 7.56538 7.02034 7.56884 6.74886 7.56884C6.76645 7.43311 6.75644 6.91088 6.7564 6.74315Z" fill="#151619"/>
<path d="M8.39847 4.25839C8.71297 4.25989 9.02746 4.25821 9.34191 4.25335C9.34209 4.52044 9.3354 4.82181 9.34505 5.08613C9.05515 5.07563 8.70248 5.08502 8.40737 5.0828C8.38953 4.88873 8.39451 4.45481 8.39847 4.25839Z" fill="#C06235"/>
<path d="M2.60435 5.08506C2.8785 5.08548 3.15755 5.08313 3.43125 5.08722C3.43116 5.35278 3.43812 5.65092 3.43045 5.91359L2.60565 5.9135C2.59085 5.70475 2.60111 5.30027 2.60435 5.08506Z" fill="#C1C7C7"/>
<path d="M6.73981 5.08498L7.5664 5.0854C7.5702 5.36155 7.57107 5.63772 7.56902 5.91389L6.7425 5.91395C6.72815 5.69259 6.74015 5.31829 6.73981 5.08498Z" fill="#C1C7C7"/>
<path d="M1.77615 6.7429C2.03253 6.74222 2.35838 6.75557 2.60419 6.74487L2.60363 7.56882L1.77488 7.57119C1.77254 7.29509 1.77296 7.01898 1.77615 6.7429Z" fill="#C1C7C7"/>
<path d="M2.60565 5.9135L3.43045 5.91359L3.43047 6.74564C3.17221 6.73499 2.86432 6.74095 2.60419 6.74487L2.60565 5.9135Z" fill="#282B33"/>
<path d="M2.60419 6.74487C2.86432 6.74095 3.17221 6.73499 3.43047 6.74564L3.43011 7.56897L2.60363 7.56882L2.60419 6.74487Z" fill="#151619"/>
<path d="M4.25559 6.74008C4.77323 6.75845 5.39118 6.74142 5.91665 6.74079C5.90876 7.00589 5.91492 7.30172 5.9146 7.56924L4.25927 7.5694L4.25559 6.74008Z" fill="#C06235"/>
<path d="M4.25822 1.65785L5.91718 1.65792L5.91423 2.60324C6.13078 2.6007 6.53511 2.58707 6.74219 2.60453C6.74133 2.87715 6.73705 3.15836 6.74469 3.43017C6.47554 3.4246 6.18488 3.43051 5.91395 3.43076L4.25936 3.43022L3.43966 3.42937L3.43409 3.42216C3.42039 3.18726 3.43153 2.84262 3.43233 2.60023L4.26052 2.60165L4.25822 1.65785Z" fill="#A54E38"/>
<path d="M4.25997 2.60295C4.7925 2.60264 5.38812 2.61615 5.91514 2.6006C5.91228 2.87606 5.9185 3.15756 5.91395 3.43076L4.25936 3.43022L4.25997 2.60295Z" fill="#C06235"/>
<path d="M2.60392 0.00125656C3.1526 0.000931359 3.71092 0.00626753 4.25873 0L4.25822 1.65785L4.26052 2.60165L3.43233 2.60023L3.4302 2.59269L3.43245 1.65591L2.60219 1.65581L2.60416 0.829635L2.60392 0.00125656Z" fill="var(--fill-0, #67534F)"/>
<path d="M2.60416 0.829635L3.43085 0.828629L3.43245 1.65591L2.60219 1.65581L2.60416 0.829635Z" fill="#8E716A"/>
<path d="M5.9151 0.00133054L7.56989 0.000162624C7.56647 0.273229 7.56724 0.546339 7.57218 0.819391L7.57886 0.827166C7.55188 1.04878 7.57613 1.4274 7.57086 1.65865C7.30237 1.64999 7.01048 1.65585 6.74027 1.65631L6.74219 2.60453C6.53511 2.58707 6.13078 2.6007 5.91423 2.60324L5.91718 1.65792C5.89371 1.17395 5.91511 0.500368 5.9151 0.00133054Z" fill="var(--fill-0, #67534F)"/>
<path d="M7.57218 0.819391L7.57886 0.827166C7.55188 1.04878 7.57613 1.4274 7.57086 1.65865C7.30237 1.64999 7.01048 1.65585 6.74027 1.65631L6.74265 0.829664C6.91227 0.830122 7.4362 0.840588 7.57218 0.819391Z" fill="#8E716A"/>
<path d="M3.4302 2.59269L3.43233 2.60023C3.43153 2.84262 3.42039 3.18726 3.43409 3.42216L3.43966 3.42937C3.41759 3.60061 3.43069 4.06335 3.43194 4.25849L1.77652 4.25759C1.77551 4.53014 1.77037 4.81296 1.77362 5.08459C1.51108 5.06886 1.10564 5.08514 0.831039 5.0882C0.820736 4.83419 0.829383 4.51694 0.828999 4.25784L1.77569 4.25635C1.77427 3.98124 1.77432 3.70613 1.77584 3.43103C2.05157 3.42832 2.32731 3.42812 2.60303 3.43042L2.60269 2.60541C2.77171 2.59779 3.29536 2.62107 3.4302 2.59269Z" fill="#C06235"/>
<path d="M3.4302 2.59269L3.43233 2.60023C3.43153 2.84262 3.42039 3.18726 3.43409 3.42216C3.3672 3.43857 2.71443 3.43088 2.60303 3.43042L2.60269 2.60541C2.77171 2.59779 3.29536 2.62107 3.4302 2.59269Z" fill="#C6A3BA"/>
<path d="M8.4 1.64713L8.40671 1.65486C8.37909 1.88261 8.40118 2.35022 8.39705 2.60024L7.57057 2.60441L7.57021 3.42925C7.29934 3.42986 7.0144 3.43514 6.74469 3.43017C6.73705 3.15836 6.74133 2.87715 6.74219 2.60453L6.74027 1.65631C7.01048 1.65585 7.30237 1.64999 7.57086 1.65865C7.78242 1.6483 8.21237 1.67624 8.4 1.64713Z" fill="#C1C7C7"/>
<path d="M8.4 1.64713L8.40671 1.65486C8.37909 1.88261 8.40118 2.35022 8.39705 2.60024L7.57057 2.60441L7.57086 1.65865C7.78242 1.6483 8.21237 1.67624 8.4 1.64713Z" fill="#8E716A"/>
<path d="M6.74219 2.60453C7.01832 2.60272 7.29444 2.60268 7.57057 2.60441L7.57021 3.42925C7.29934 3.42986 7.0144 3.43514 6.74469 3.43017C6.73705 3.15836 6.74133 2.87715 6.74219 2.60453Z" fill="#C6A3BA"/>
<path d="M0.829472 2.60135C1.12952 2.6002 1.48286 2.59016 1.7784 2.60108C2.05066 2.60182 2.3312 2.59961 2.60269 2.60541L2.60303 3.43042C2.32731 3.42812 2.05157 3.42832 1.77584 3.43103C1.77432 3.70613 1.77427 3.98124 1.77569 4.25635L0.828999 4.25784C0.838223 3.71465 0.829546 3.14657 0.829472 2.60135Z" fill="#A54E38"/>
<path d="M1.7784 2.60108C2.05066 2.60182 2.3312 2.59961 2.60269 2.60541L2.60303 3.43042C2.32731 3.42812 2.05157 3.42832 1.77584 3.43103C1.77279 3.15439 1.77365 2.8777 1.7784 2.60108Z" fill="var(--fill-0, #67534F)"/>
<path d="M7.57057 2.60441L8.39705 2.60024L9.3422 2.59867L9.34191 4.25335C9.02746 4.25821 8.71297 4.25989 8.39847 4.25839L8.39742 3.4302L7.57021 3.42925L7.57057 2.60441Z" fill="#A54E38"/>
<path d="M7.57057 2.60441L8.39705 2.60024C8.39813 2.87278 8.40356 3.15872 8.39742 3.4302L7.57021 3.42925L7.57057 2.60441Z" fill="var(--fill-0, #67534F)"/>
<path d="M0 5.08569C0.277028 5.08489 0.554041 5.08573 0.831039 5.0882C1.10564 5.08514 1.51108 5.06886 1.77362 5.08459L1.77347 5.91795L1.77347 6.72898C1.46527 6.75311 1.13806 6.73455 0.828541 6.74541L0.821017 6.74241C0.839597 6.67591 0.830241 6.02729 0.829516 5.9142C0.557603 5.90944 0.276496 5.91341 0.00388765 5.91384L0 5.08569Z" fill="#C06235"/>
<path d="M0.831039 5.0882C1.10564 5.08514 1.51108 5.06886 1.77362 5.08459L1.77347 5.91795C1.49053 5.91377 1.10468 5.90125 0.82659 5.92261C0.834291 5.65037 0.830374 5.36168 0.831039 5.0882Z" fill="#D7742F"/>
<path d="M1.77639 1.6573L2.60219 1.65581L3.43245 1.65591L3.4302 2.59269C3.29536 2.62107 2.77171 2.59779 2.60269 2.60541C2.3312 2.59961 2.05066 2.60182 1.7784 2.60108C1.76645 2.30607 1.77588 1.95631 1.77639 1.6573Z" fill="#C1C7C7"/>
<path d="M1.77639 1.6573L2.60219 1.65581L2.60269 2.60541C2.3312 2.59961 2.05066 2.60182 1.7784 2.60108C1.76645 2.30607 1.77588 1.95631 1.77639 1.6573Z" fill="#8E716A"/>
<path d="M0.830078 1.6569L1.77639 1.6573C1.77588 1.95631 1.76645 2.30607 1.7784 2.60108C1.48286 2.59016 1.12952 2.6002 0.829472 2.60135L0.830078 1.6569Z" fill="var(--fill-0, #67534F)"/>
<path d="M8.40671 1.65486C8.71902 1.65747 9.03135 1.65775 9.34367 1.65572L9.3422 2.59867L8.39705 2.60024C8.40118 2.35022 8.37909 1.88261 8.40671 1.65486Z" fill="var(--fill-0, #67534F)"/>
<path d="M9.34505 5.08613L10.171 5.0852L10.171 5.91497L9.34072 5.91201C9.3522 5.66459 9.34376 5.33977 9.34505 5.08613Z" fill="#C06235"/>
<path d="M1.77605 0.829014L2.60416 0.829635L2.60219 1.65581L1.77639 1.6573L1.77605 0.829014Z" fill="var(--fill-0, #67534F)"/>
<path d="M7.57886 0.827166C7.85179 0.829531 8.12476 0.829797 8.39769 0.82792C8.39691 1.09312 8.39042 1.38399 8.4 1.64713C8.21237 1.67624 7.78242 1.6483 7.57086 1.65865C7.57613 1.4274 7.55188 1.04878 7.57886 0.827166Z" fill="var(--fill-0, #67534F)"/>
</g>
</svg>
