<svg preserveAspectRatio="none" width="100%" height="100%" style="display: block;" viewBox="0 0 30.4215 30.4215" fill="none" xmlns="http://www.w3.org/2000/svg">
  <path d="M14.8877 0.930512C14.9453 0.561792 15.4763 0.56179 15.5338 0.930509L17.382 12.7669C17.404 12.9073 17.5142 13.0176 17.6547 13.0395L29.491 14.8877C29.8597 14.9453 29.8597 15.4763 29.491 15.5338L17.6547 17.382C17.5142 17.404 17.404 17.5142 17.382 17.6547L15.5338 29.491C15.4763 29.8597 14.9453 29.8597 14.8877 29.491L13.0395 17.6547C13.0176 17.5142 12.9073 17.404 12.7669 17.382L0.930512 15.5338C0.561792 15.4763 0.56179 14.9453 0.930509 14.8877L12.7669 13.0395C12.9073 13.0176 13.0176 12.9073 13.0395 12.7669L14.8877 0.930512Z" fill="#FFD060"/>
</svg>
