<svg preserveAspectRatio="none" width="100%" height="100%" style="display: block;" viewBox="0 0 43.3216 43.3216" fill="none" xmlns="http://www.w3.org/2000/svg">
  <path d="M21.2007 1.32509C21.2827 0.800016 22.0389 0.800017 22.1209 1.32509L24.7528 18.1806C24.784 18.3806 24.941 18.5376 25.141 18.5688L41.9965 21.2007C42.5216 21.2827 42.5216 22.0389 41.9965 22.1209L25.141 24.7528C24.941 24.784 24.784 24.941 24.7528 25.141L22.1209 41.9965C22.0389 42.5216 21.2827 42.5216 21.2007 41.9965L18.5688 25.141C18.5376 24.941 18.3806 24.784 18.1806 24.7528L1.32509 22.1209C0.800016 22.0389 0.800017 21.2827 1.32509 21.2007L18.1806 18.5688C18.3806 18.5376 18.5376 18.3806 18.5688 18.1806L21.2007 1.32509Z" fill="#FFD060"/>
</svg>
