<svg preserveAspectRatio="none" width="100%" height="100%" style="display: block;" viewBox="0 0 74.429 74.429" fill="none" xmlns="http://www.w3.org/2000/svg">
  <path d="M36.4241 2.27658C36.5649 1.37447 37.8641 1.37447 38.0049 2.27658L42.5267 31.2353C42.5804 31.579 42.85 31.8486 43.1937 31.9023L72.1524 36.4241C73.0545 36.5649 73.0545 37.8641 72.1524 38.0049L43.1937 42.5267C42.85 42.5804 42.5804 42.85 42.5267 43.1937L38.0049 72.1524C37.8641 73.0545 36.5649 73.0545 36.4241 72.1524L31.9023 43.1937C31.8486 42.85 31.579 42.5804 31.2353 42.5267L2.27658 38.0049C1.37447 37.8641 1.37447 36.5649 2.27658 36.4241L31.2353 31.9023C31.579 31.8486 31.8486 31.579 31.9023 31.2353L36.4241 2.27658Z" fill="#00FFE1"/>
</svg>
