<svg preserveAspectRatio="none" width="100%" height="100%" style="display: block;" viewBox="0 0 53.0238 53.0238" fill="none" xmlns="http://www.w3.org/2000/svg">
  <path d="M25.9488 1.62185C26.0491 0.979187 26.9746 0.979183 27.075 1.62185L30.2963 22.2522C30.3346 22.4971 30.5267 22.6892 30.7715 22.7274L51.4019 25.9488C52.0446 26.0491 52.0446 26.9746 51.4019 27.075L30.7715 30.2963C30.5267 30.3346 30.3346 30.5267 30.2963 30.7715L27.075 51.4019C26.9746 52.0446 26.0491 52.0446 25.9488 51.4019L22.7274 30.7715C22.6892 30.5267 22.4971 30.3346 22.2522 30.2963L1.62185 27.075C0.979187 26.9746 0.979183 26.0491 1.62185 25.9488L22.2522 22.7274C22.4971 22.6892 22.6892 22.4971 22.7274 22.2522L25.9488 1.62185Z" fill="#00FFE1"/>
</svg>
